<svg width="208" height="59" viewBox="0 0 208 59" fill="none" xmlns="http://www.w3.org/2000/svg">
<g clip-path="url(#clip0_163_6040)">
<path d="M37.2687 1.11125C36.5636 1.21228 35.4556 1.41434 34.3476 2.0205C33.844 2.22256 31.9302 3.1318 30.2178 5.15235C30.0163 5.35441 29.8149 5.65749 29.2105 6.56673C28.9084 6.97084 28.6062 7.57701 28.1025 8.38523C26.8938 10.5068 26.1887 11.5171 25.4837 12.8304C24.0735 15.5582 23.5699 16.7705 22.1597 18.488C21.7568 18.9931 21.2532 19.4982 20.5481 19.9024C20.2459 20.1044 19.0372 20.8116 17.3248 21.0137C15.9147 21.2157 14.7059 20.8116 14.2023 20.7106C13.195 20.4075 12.49 20.0034 11.6841 19.4982C10.6769 18.8921 9.66962 18.2859 8.86381 17.3767C7.65509 15.9623 6.74855 13.6387 7.15146 11.416C7.65509 9.09242 9.26671 7.77906 11.6841 5.85954C12.9936 4.84927 14.2023 4.14208 15.1088 3.63694C17.5263 2.32358 19.5408 1.61639 20.3466 1.31331C21.1524 1.01023 21.9582 0.808172 22.8648 0.606118C23.5699 0.404063 25.9873 -0.101074 29.1098 -0.101074C32.2323 -0.101074 34.9519 0.404063 37.0672 0.9092C37.0672 0.9092 37.1679 0.9092 37.2687 0.9092V1.11125Z" fill="white"/>
<path d="M8.96465 8.38525C8.66247 9.09245 8.36029 10.1027 8.25956 11.4161C8.25956 12.0222 8.05811 14.0428 8.86392 16.5685C8.96465 16.9726 9.1661 17.3767 10.5763 20.0034C11.785 22.125 12.3893 23.2363 13.0944 24.5496C14.7061 27.1763 15.5119 28.1866 16.2169 30.3082C16.4184 30.9144 16.6199 31.6216 16.6199 32.4298C16.6199 32.8339 16.6199 34.1472 15.9148 35.7637C15.3104 37.077 14.5046 37.8853 14.001 38.2894C13.1952 38.9966 12.4901 39.4007 11.785 39.9058C10.7777 40.512 9.77046 41.0171 8.56174 41.3202C6.74867 41.7243 4.33123 41.3202 2.61889 39.8048C0.906537 38.2894 0.503632 36.0668 0.100726 33.137C0 31.2174 0 29.9041 0 28.7928C0 26.065 0.503632 23.9435 0.705085 23.1353C0.906537 22.327 1.10799 21.5188 1.41017 20.6096C1.61162 19.9024 2.41743 17.5787 4.02906 14.851C5.64068 12.0222 7.55448 9.90066 9.06537 8.38525H8.96465Z" fill="white"/>
<path d="M68.4939 31.8235H51.2697L44.3196 38.7944L47.4421 49.8064L50.6653 49.7053L68.4939 31.8235Z" fill="white"/>
<path d="M0.906635 36.875C1.41027 37.4811 2.11535 38.2893 3.12262 38.9965C3.62625 39.2996 5.23787 40.5119 7.85676 41.0171C8.25966 41.0171 8.76329 41.2191 11.6844 41.2191C14.1018 41.2191 15.4112 41.2191 16.8214 41.2191C19.9439 41.2191 21.2534 40.916 23.3686 41.2191C23.973 41.3202 24.6781 41.5222 25.4839 41.9263C25.7861 42.1284 26.9948 42.7345 28.002 44.1489C28.9086 45.3613 29.11 46.4726 29.3115 47.0787C29.6137 48.089 29.5129 48.8972 29.5129 49.8065C29.5129 51.0188 29.5129 52.1301 29.11 53.2414C28.5057 55.0599 26.9948 56.9794 24.8795 57.6866C22.6635 58.4948 20.649 57.6866 17.8287 56.5753C16.217 55.9691 15.1091 55.2619 14.1018 54.6558C11.6844 53.2414 10.1735 51.827 9.46838 51.3219C8.86402 50.8167 8.25966 50.2106 7.6553 49.5034C7.15167 48.8972 5.54005 47.0787 3.92843 44.351C2.3168 41.5222 1.30954 38.8955 0.805908 36.7739L0.906635 36.875Z" fill="white"/>
<path d="M68.3933 27.1763C58.3206 27.1763 48.248 27.1763 38.1753 27.1763C37.571 27.1763 34.4485 27.0753 31.8296 24.4486C29.4121 22.024 29.2107 19.0942 29.2107 18.387V7.37498V6.46573C29.8151 5.55649 30.0165 5.2534 30.218 5.05135C31.9303 3.0308 33.8441 2.22258 34.3477 1.9195C35.5565 1.41436 36.5637 1.11128 37.2688 1.01025C39.5855 1.71745 42.4059 2.82875 45.3269 4.74827C46.7371 5.75854 48.0465 6.66779 49.0538 7.67806L68.3933 27.0753V27.1763Z" fill="white"/>
<path d="M21.354 57.7875C22.0591 57.6865 23.1671 57.4845 24.2751 56.9793C24.7787 56.7773 26.6925 55.868 28.4049 53.9485C28.707 53.6454 29.0092 53.2413 30.5201 50.7156C31.8295 48.5941 32.4339 47.5838 33.139 46.2704C34.6499 43.5427 35.0528 42.3304 36.5637 40.6129C36.9666 40.1078 37.4702 39.6026 38.1753 39.1985C38.4775 38.9965 39.6862 38.2893 41.3986 38.0872C42.8087 37.9862 44.0174 38.2893 44.5211 38.4913C45.5283 38.7944 46.2334 39.1985 47.0392 39.7036C48.0465 40.3098 49.0538 40.916 49.8596 41.8252C51.0683 43.2396 51.9748 45.5632 51.5719 47.7858C51.0683 50.1095 49.4567 51.4228 47.0392 53.3423C45.7298 54.3526 44.5211 55.0598 43.5138 55.5649C41.0964 56.8783 39.0819 57.5855 38.276 57.7875C37.4702 57.9896 36.6644 58.2927 35.7579 58.4947C35.0528 58.6968 32.6354 59.1009 29.5128 59.1009C26.2896 59.1009 23.4693 58.5958 21.354 57.9896V57.7875Z" fill="white"/>
<path d="M103.245 28.4898L102.842 28.2877H81.5884C81.5884 28.2877 81.387 27.4795 81.4877 27.0754V26.7723L81.387 26.1662H94.5821C97.3017 25.8631 98.9134 23.0343 97.7046 20.5086C97.201 19.3973 95.7908 18.3871 94.4814 18.3871H81.5884V12.0223C86.524 12.0223 91.4596 11.9213 96.3952 12.1234C104.655 12.4264 109.187 22.4281 103.245 28.4898Z" fill="white"/>
<path d="M197.827 27.8835C200.445 31.9246 203.165 35.8647 205.784 39.9058C206.489 41.0171 207.295 42.2294 208 43.3407H200.345C196.92 38.2893 193.697 33.1369 190.373 28.0856C190.474 27.8835 190.675 27.8835 190.876 27.8835C193.092 27.6815 195.611 28.0856 197.827 27.8835Z" fill="white"/>
<path d="M208 17.8818V36.3698L200.446 24.7517C200.446 22.4281 200.446 20.1044 200.446 17.8818H208.101H208Z" fill="white"/>
<path d="M208 11.9214V17.882H200.345C200.345 15.8615 200.345 13.9419 200.345 11.9214H208Z" fill="white"/>
<path d="M81.5884 28.1867H102.842L103.245 28.3888C102.036 29.6011 100.726 30.5104 99.014 30.8134C98.9133 30.9145 100.223 32.4299 100.424 32.6319C104.353 37.6833 107.777 42.9367 113.619 46.0686C114.324 46.4727 115.13 46.7758 115.835 47.1799C112.008 46.9778 108.079 47.3819 104.353 47.1799C101.23 46.9778 99.7191 46.1696 98.0068 43.5429L90.8552 31.3186H89.3443V43.2398H81.6891C81.6891 38.1884 81.6891 33.1371 81.6891 28.0857L81.5884 28.1867Z" fill="white"/>
<path d="M117.044 27.1765C116.843 33.1371 120.67 37.5823 126.815 36.6731C131.448 35.9659 133.563 31.9248 133.563 27.5806H141.42C141.42 35.5618 135.981 42.4317 128.023 43.644C117.649 45.1594 109.188 37.7844 109.288 27.2775H117.044V27.1765Z" fill="white"/>
<path d="M141.42 27.4795H133.563C133.563 23.1353 131.448 19.2963 126.814 18.5891C121.073 17.6798 117.245 21.5189 117.044 27.1764H109.288C109.49 16.3665 119.461 9.39559 129.736 12.1233C136.686 13.9418 141.319 20.3066 141.42 27.4795Z" fill="white"/>
<path d="M179.998 26.6712C179.998 21.8219 179.998 16.8715 179.998 12.0222H187.351C189.869 15.7602 192.387 19.5993 194.906 23.4383C195.812 24.8527 196.819 26.4691 197.827 27.9845C195.611 28.1866 193.092 27.7825 190.876 27.9845C190.675 27.9845 190.474 27.9845 190.373 28.1866C189.466 26.8732 188.56 25.5599 187.653 24.2465C187.653 25.0548 187.653 25.863 187.653 26.6712H179.998Z" fill="white"/>
<path d="M153.205 28.4897C153.205 31.5206 153.205 34.5514 153.205 37.4812H163.277V43.4418H145.55C145.55 38.4915 145.55 33.4401 145.55 28.4897H153.205Z" fill="white"/>
<path d="M187.653 26.6714C187.653 32.2279 187.653 37.8854 187.653 43.4419H179.998C179.998 37.8854 179.998 32.2279 179.998 26.6714H187.653Z" fill="white"/>
<path d="M145.55 28.4897C145.55 23.0342 145.55 17.4777 145.55 12.0222H153.205C153.205 17.4777 153.205 23.0342 153.205 28.4897H145.55Z" fill="white"/>
<path d="M166.904 28.3887C166.904 22.9332 166.904 17.4777 166.904 12.0222H174.559C174.559 17.4777 174.559 22.9332 174.559 28.3887H166.904Z" fill="white"/>
<path d="M174.559 28.3887C174.559 33.44 174.559 38.4914 174.559 43.4418H166.904C166.904 38.3904 166.904 33.339 166.904 28.3887H174.559Z" fill="white"/>
</g>
<defs>
<clipPath id="clip0_163_6040">
<rect width="208" height="59" fill="white"/>
</clipPath>
</defs>
</svg>
