<svg width="156" height="51" viewBox="0 0 156 51" fill="none" xmlns="http://www.w3.org/2000/svg">
<path d="M36.4829 0.0524902H18.8577L0.000488281 50.5278H17.4047L19.8158 42.5259H35.2616L37.778 50.5278H55.6349L36.4935 0.0524902H36.4829ZM23.7641 29.9755L27.544 17.2145L31.5765 29.9755H23.7746H23.7641Z" fill="white"/>
<path d="M98.6033 50.4751H112.87V21.0891L120.377 50.4751H133.022L140.803 21.0891V50.4751H155.017V0.136719H133.443L126.81 26.1114L120.093 0.136719H98.6033V50.4751Z" fill="white"/>
<path d="M59.0886 50.5279H93.897V28.6489H93.0863C89.7276 34.9346 83.126 38.8198 76.0611 38.6619C69.2805 38.5145 63.0685 34.6714 59.8467 28.6489H59.0886V50.5279Z" fill="white"/>
<path d="M76.4926 22.5526C79.3419 22.5526 81.6518 20.2428 81.6518 17.3935C81.6518 14.5442 79.3419 12.2344 76.4926 12.2344C73.6433 12.2344 71.3335 14.5442 71.3335 17.3935C71.3335 20.2428 73.6433 22.5526 76.4926 22.5526Z" fill="white"/>
<path d="M76.4929 29.0805C70.0492 29.0805 64.8164 23.8372 64.8164 17.404C64.8164 10.9709 70.0598 5.72754 76.4929 5.72754C82.926 5.72754 88.1694 10.9709 88.1694 17.404C88.1694 23.8372 82.926 29.0805 76.4929 29.0805ZM76.4929 7.47533C71.0179 7.47533 66.5747 11.929 66.5747 17.3935C66.5747 22.858 71.0284 27.3117 76.4929 27.3117C81.9574 27.3117 86.4111 22.858 86.4111 17.3935C86.4111 11.929 81.9574 7.47533 76.4929 7.47533Z" fill="white"/>
<path d="M76.4925 34.7873C66.9007 34.7873 59.1094 26.9854 59.1094 17.3937C59.1094 7.80187 66.9113 0 76.4925 0C86.0738 0 93.8862 7.80187 93.8862 17.3937C93.8862 26.9854 86.0843 34.7873 76.4925 34.7873ZM76.4925 1.76885C67.8694 1.76885 60.8572 8.78106 60.8572 17.4042C60.8572 26.0273 67.8694 33.0395 76.4925 33.0395C85.1156 33.0395 92.1278 26.0273 92.1278 17.4042C92.1278 8.78106 85.1156 1.76885 76.4925 1.76885Z" fill="white"/>
</svg>
